<?xml version="1.0" encoding="utf-8"?>
<!-- Generator: Adobe Illustrator 28.0.0, SVG Export Plug-In . SVG Version: 6.00 Build 0)  -->
<svg version="1.1" id="Layer_1" xmlns="http://www.w3.org/2000/svg" xmlns:xlink="http://www.w3.org/1999/xlink" x="0px" y="0px"
	 viewBox="0 0 360 360" style="enable-background:new 0 0 360 360;" xml:space="preserve">
<path d="M354.18,150.96c-13.03,2.17-18.46,4.34-30.4,7.6c-13.1,3.57-27.78,9.9-36.92,14.12c-14.12,6.51-36.88,20.1-36.88,34.18
	c0,11.82,21.73,9.28,42.6,3.9c29.91-7.48,61.48-15.05,61.48,20.39c0,40.98-30.8,82.39-77.37,100.61
	c-32.92,12.88-60.06,17.82-83,16.65v-42.25c11.68,3.17,65.55-0.93,83-9.84c16.2-8.28,30.54-20.62,30.54-34.96
	c0-13.58-16.83-9.26-45.81-2c-28.04,7.03-66.75-6.74-67.94-38.9c-1.09-29.32,15.2-40.17,42.35-53.2
	c18.25-8.76,36.92-18.46,56.46-28.23c20.42-10.21,40.17-19.54,61.77-30.4L354.18,150.96z"/>
<path d="M42.86,285.14c-24.3-12.2-37.84-29.93-37.58-57.11c0.32-33.39,0.17-66.78,0.05-100.17c-0.09-24.31,11.18-42.01,32.23-52.9
	c36.97-19.13,74.13-37.92,111.69-55.85c23.75-11.34,47.51-8.34,70.78,3.51c44.07,22.44,133.85,67.4,134.78,68.1
	c-22.15,11.15-43.98,22.16-65.84,33.13c-25.37,12.73-50.91,25.12-76.1,38.19c-24.9,12.93-38.42,33.11-38.22,61.95
	c0.28,40.61,0.01,81.23,0.09,121.84c0.01,3.84,0.02,5.44-4.49,3.05c-13.41-7.11-27.02-13.85-40.68-20.5
	c-2.89-1.41-3.76-2.99-3.76-6.16c0.12-45.3-0.07-90.6,0.14-135.9c0.09-20.06,10.97-33.65,28.08-42.53
	c19.13-9.93,38.55-19.33,57.83-28.97c13-6.5,25.98-13.03,40.03-20.07c-6.76-3.41-12.69-6.42-18.64-9.39
	c-1.64-0.82-2.99,0.23-4.36,0.92c-28.74,14.37-57.83,28.07-86.09,43.31c-23.03,12.42-34.98,32.51-34.91,59.22
	c0.1,40.61,0.03,81.23,0.03,121.84c0,6.69-0.03,6.73-6.26,3.64c-11.87-5.88-23.63-11.99-35.61-17.62c-4.09-1.92-5.55-4.17-5.52-8.81
	c0.22-40.61,0.38-81.23,0.03-121.84c-0.2-23.51,10.73-39.76,31-50.12c31.21-15.96,62.63-31.5,93.95-47.24
	c2.08-1.04,4.1-2.19,6.92-3.7c-6.54-3.28-12.55-6.18-18.43-9.32c-1.9-1.01-3,0.24-4.25,0.86c-29.26,14.63-58.72,28.91-87.67,44.14
	c-25.96,13.66-39.6,35.18-39.3,65.25C43.15,205.32,42.86,244.75,42.86,285.14z"/>
</svg>
